<?xml version="1.0" encoding="utf-8"?>
<!DOCTYPE svg PUBLIC "-//W3C//DTD SVG 1.1//EN" "http://www.w3.org/Graphics/SVG/1.1/DTD/svg11.dtd">
<svg version="1.1" xmlns="http://www.w3.org/2000/svg" xmlns:xlink="http://www.w3.org/1999/xlink" x="0px" y="0px" width="120px"
	 height="120px" viewBox="0 0 120 120" enable-background="new 0 0 120 120" xml:space="preserve" id="cloudPlayerCassette">
  <defs>
      <clipPath id="notesMask">
        <rect x="43" y="79" fill="#000000" width="47" height="30"/>
      </clipPath>
  </defs>
  <g id="notes" clip-path="url(#notesMask)">
    <g>
      <g>
        <path fill="#ff3600" d="M99.021,90.958c-4.672,0-8.458,3.787-8.458,8.457s3.786,8.456,8.458,8.456
          c4.671,0,8.457-3.786,8.457-8.456S103.692,90.958,99.021,90.958z M99.021,105.398c-3.306,0-5.986-2.679-5.986-5.983
          c0-3.306,2.681-5.985,5.986-5.985s5.984,2.68,5.984,5.985C105.006,102.72,102.327,105.398,99.021,105.398z"/>
        <rect x="105.146" y="80.566" fill="#ff3600" width="2.472" height="19.276"/>
      </g>
      <g>
        <path fill="#ff3600" d="M122.498,86.51c-4.67,0-8.457,3.787-8.457,8.458c0,4.668,3.787,8.455,8.457,8.455
          c4.671,0,8.457-3.787,8.457-8.455C130.955,90.297,127.169,86.51,122.498,86.51z M122.498,100.952
          c-3.306,0-5.984-2.679-5.984-5.984c0-3.309,2.679-5.987,5.984-5.987s5.986,2.679,5.986,5.987
          C128.484,98.273,125.804,100.952,122.498,100.952z"/>
        <rect x="128.623" y="80.566" fill="#ff3600" width="2.471" height="14.827"/>
      </g>
      <g>
        <path fill="#ff3600" d="M51.572,90.958c-4.671,0-8.457,3.787-8.457,8.457s3.786,8.456,8.457,8.456c4.67,0,8.456-3.786,8.456-8.456
          S56.243,90.958,51.572,90.958z M51.572,105.398c-3.307,0-5.986-2.679-5.986-5.983c0-3.306,2.679-5.985,5.986-5.985
          c3.306,0,5.984,2.68,5.984,5.985C57.557,102.72,54.878,105.398,51.572,105.398z"/>
        <rect x="57.695" y="80.566" fill="#ff3600" width="2.473" height="19.276"/>
      </g>
      <g>
        <path fill="#ff3600" d="M75.049,86.51c-4.67,0-8.456,3.787-8.456,8.458c0,4.668,3.786,8.455,8.456,8.455
          c4.671,0,8.457-3.787,8.457-8.455C83.506,90.297,79.72,86.51,75.049,86.51z M75.049,100.952c-3.306,0-5.986-2.679-5.986-5.984
          c0-3.309,2.681-5.987,5.986-5.987c3.307,0,5.986,2.679,5.986,5.987C81.035,98.273,78.355,100.952,75.049,100.952z"/>
        <rect x="81.174" y="80.566" fill="#ff3600" width="2.471" height="14.827"/>
      </g>
      <g>
        <path fill="#ff3600" d="M4.123,90.958c-4.67,0-8.456,3.787-8.456,8.457s3.786,8.456,8.456,8.456c4.671,0,8.458-3.786,8.458-8.456
          S8.793,90.958,4.123,90.958z M4.123,105.398c-3.305,0-5.985-2.679-5.985-5.983c0-3.306,2.68-5.985,5.985-5.985
          c3.307,0,5.986,2.68,5.986,5.985C10.109,102.72,7.429,105.398,4.123,105.398z"/>
        <rect x="10.248" y="80.566" fill="#ff3600" width="2.47" height="19.276"/>
      </g>
      <g>
        <path fill="#ff3600" d="M27.6,86.51c-4.671,0-8.456,3.787-8.456,8.458c0,4.668,3.785,8.455,8.456,8.455
          c4.67,0,8.458-3.787,8.458-8.455C36.058,90.297,32.271,86.51,27.6,86.51z M27.6,100.952c-3.306,0-5.985-2.679-5.985-5.984
          c0-3.309,2.679-5.987,5.985-5.987s5.986,2.679,5.986,5.987C33.586,98.273,30.906,100.952,27.6,100.952z"/>
        <rect x="33.724" y="80.566" fill="#ff3600" width="2.471" height="14.827"/>
      </g>
      <animateMotion
          begin="indefinite"
          class="main-animation"
          from="0,0"
          to="47,0"
          dur="2s"
          repeatCount="indefinite"
          fill="freeze"/>
    </g>
  </g>
  <g id="rackWheel">
    <g>
      <g>

          <rect x="88.499" y="37.836" transform="matrix(0.6969 -0.7171 0.7171 0.6969 -0.7727 76.0672)" fill="#ff3600" width="2.224" height="2.224"/>

          <rect x="69.893" y="19.748" transform="matrix(0.6973 -0.7168 0.7168 0.6973 6.5423 57.2118)" fill="#ff3600" width="2.225" height="2.224"/>

          <rect x="88.24" y="19.489" transform="matrix(-0.7168 -0.6973 0.6973 -0.7168 139.0362 97.6704)" fill="#ff3600" width="2.223" height="2.223"/>

          <rect x="70.152" y="38.095" transform="matrix(-0.717 -0.697 0.697 -0.717 95.0322 116.994)" fill="#ff3600" width="2.224" height="2.225"/>

          <rect x="79.014" y="15.819" transform="matrix(-0.9999 0.0141 -0.0141 -0.9999 160.4811 32.7342)" fill="#ff3600" width="2.223" height="2.224"/>

          <rect x="79.379" y="41.765" transform="matrix(-0.9999 0.0145 -0.0145 -0.9999 161.5953 84.584)" fill="#ff3600" width="2.224" height="2.225"/>

          <rect x="66.224" y="28.975" transform="matrix(0.0154 0.9999 -0.9999 0.0154 96.3842 -37.7028)" fill="#ff3600" width="2.224" height="2.225"/>

          <rect x="92.169" y="28.609" transform="matrix(0.0149 0.9999 -0.9999 0.0149 121.6065 -63.9936)" fill="#ff3600" width="2.224" height="2.225"/>
      </g>
      <path fill="#ff3600" d="M80.184,18.042c-6.549,0-11.861,5.311-11.861,11.862c0,6.552,5.312,11.862,11.861,11.862
        c6.552,0,11.864-5.311,11.864-11.862C92.048,23.353,86.735,18.042,80.184,18.042z M80.184,39.296c-5.185,0-9.39-4.205-9.39-9.392
        c0-5.186,4.205-9.391,9.39-9.391c5.188,0,9.393,4.205,9.393,9.391C89.576,35.091,85.371,39.296,80.184,39.296z"/>
      <animateTransform
        begin="indefinite"
        class="main-animation"
        attributeName="transform"
        attributeType="XML"
        type="rotate"
        from="0 80 30"
        to="360 80 30"
        dur="2s"
        repeatCount="indefinite"
        fill="freeze"/>
    </g>
  </g>
  <g id="leftWheel">
    <path fill="#ff3600" d="M42.935,19.093c-16.278,0-29.475,13.197-29.475,29.476c0,16.28,13.196,29.477,29.475,29.477
      c16.28,0,29.476-13.196,29.476-29.477C72.41,32.29,59.215,19.093,42.935,19.093z M42.692,20.761
      c0.683-0.003,1.238,0.549,1.24,1.231c0.002,0.683-0.549,1.237-1.231,1.24c-0.683,0.002-1.238-0.55-1.239-1.231
      C41.459,21.317,42.01,20.763,42.692,20.761z M42.935,72.113c-13.002,0-23.543-10.542-23.543-23.544
      c0-13.003,10.541-23.544,23.543-23.544c13.004,0,23.546,10.541,23.546,23.544C66.48,61.571,55.939,72.113,42.935,72.113z"/>
      <animateTransform
        begin="indefinite"
        class="main-animation"
        attributeName="transform"
        attributeType="XML"
        type="rotate"
        from="0 43 48.5"
        to="-360 43 48.5"
        dur="2s"
        repeatCount="indefinite"
        fill="freeze"/>
  </g>
  <g id="rightWheel">
    <g>
      <circle opacity="0" fill="#FFFFFF" cx="90.564" cy="71.422" r="1.236"/>
      <circle fill="#ff3600" cx="90.158" cy="46.957" r="1.236"/>
      <animateTransform
        begin="indefinite"
        class="main-animation"
        attributeName="transform"
        attributeType="XML"
        type="rotate"
        from="0 90 59"
        to="-360 90 59"
        dur="2s"
        repeatCount="indefinite"
        fill="freeze"/>
    </g>
  </g>
  <g id="logo">
    <g>
      <defs>
        <mask id="playerStateMask">
          <circle fill="#fff" cx="43" cy="48.5" r="20.364"/>
          <polygon fill="#000" points="42,54.903 33,61.037 33,36.502 42,42.637">
              <animate class="icon-animation-to-pause" begin="indefinite" attributeName="points" dur="200ms" to="40,61.037 31,61.037 31,36.502 40,36.502" fill="freeze"/>
              <animate class="icon-animation-to-play" begin="indefinite" attributeName="points" dur="200ms" to="42,54.903 33,61.037 33,36.502 42,42.637" fill="freeze"/>
          </polygon>

          <polygon fill="#000" points="53,48.77 42,54.903 42,42.637 53,48.525">
              <animate class="icon-animation-to-pause" begin="indefinite" attributeName="points" dur="200ms" to="53,61.037 44,61.037 44,36.502 53,36.502" fill="freeze"/>
              <animate class="icon-animation-to-play" begin="indefinite" attributeName="points" dur="200ms" to="55,48.77 42,54.903 42,42.637 55,48.525" fill="freeze"/>
          </polygon>
        </mask>
      </defs>
      <circle fill="#ff3600" cx="43" cy="48.5" r="20.364" mask="url(#playerStateMask)" id="playerState"/>

      <!--<path fill="#ff3600" d="M43.02,28.237c-11.229,0-20.332,9.103-20.332,20.332c0,11.229,9.103,20.332,20.332,20.332-->
      <!--s20.332-9.104,20.332-20.332C63.352,37.34,54.249,28.237,43.02,28.237z M34.763,61.155V35.974l19.076,12.59L34.763,61.155z"/>-->
      <rect x="42.126" y="75.871" fill="#ff3600" width="49.426" height="2.224"/>
      <path fill="#ff3600" d="M90.26,40.531c-10.341,0-18.724,8.384-18.724,18.725c0,10.343,8.383,18.727,18.724,18.727
        c10.342,0,18.726-8.384,18.726-18.727C108.985,48.915,100.602,40.531,90.26,40.531z M90.316,75.13
        c-8.734,0-15.815-7.081-15.815-15.816c0-8.736,7.081-15.817,15.815-15.817c8.736,0,15.817,7.082,15.817,15.817
        C106.134,68.049,99.053,75.13,90.316,75.13z"/>
    </g>
  </g>
</svg>
