<?xml version="1.0" encoding="utf-8"?>
<!DOCTYPE svg PUBLIC "-//W3C//DTD SVG 1.1//EN" "http://www.w3.org/Graphics/SVG/1.1/DTD/svg11.dtd">
<svg version="1.1" xmlns="http://www.w3.org/2000/svg" xmlns:xlink="http://www.w3.org/1999/xlink" x="0px" y="0px" width="100px"
	 height="100px" viewBox="0 0 100 100" enable-background="new 0 0 100 100" xml:space="preserve">
	<path id="left-wheel" fill="#FF3600" d="M29.66,7.228c-15.422,0-27.969,12.546-27.969,27.967c0,15.428,12.547,27.972,27.969,27.972
		c15.423,0,27.975-12.544,27.975-27.972C57.635,19.774,45.083,7.228,29.66,7.228z M29.626,8.344c0.93-0.004,1.685,0.748,1.686,1.676
		c0.004,0.929-0.746,1.684-1.674,1.688c-0.928,0.003-1.685-0.749-1.687-1.675C27.948,9.102,28.699,8.347,29.626,8.344z
		 M29.66,57.573c-12.338,0-22.375-10.038-22.375-22.378c0-12.337,10.038-22.374,22.375-22.374c12.338,0,22.382,10.037,22.382,22.374
		C52.042,47.535,41.999,57.573,29.66,57.573z"/>
</svg>
