<?xml version="1.0" encoding="utf-8"?>
<!DOCTYPE svg PUBLIC "-//W3C//DTD SVG 1.1//EN" "http://www.w3.org/Graphics/SVG/1.1/DTD/svg11.dtd">
<svg version="1.1" xmlns="http://www.w3.org/2000/svg" xmlns:xlink="http://www.w3.org/1999/xlink" x="0px" y="0px" width="100px"
	 height="100px" viewBox="0 0 100 100" enable-background="new 0 0 100 100" xml:space="preserve">
  <g id="note-l">
    <path fill="#FF3600" d="M29.146,76.583c-6.469,0-11.709,5.243-11.709,11.714c0,6.462,5.24,11.703,11.709,11.703
      c6.464,0,11.702-5.241,11.702-11.703C40.849,81.826,35.611,76.583,29.146,76.583z M29.146,96.578c-4.578,0-8.29-3.711-8.29-8.281
      c0-4.583,3.712-8.291,8.29-8.291c4.575,0,8.283,3.708,8.283,8.291C37.429,92.872,33.721,96.578,29.146,96.578z"/>
    <rect x="37.482" y="65.419" fill="#FF3600" width="3.423" height="23.329"/>
  </g>
</svg>
